<?xml version="1.0" standalone="no"?>
<!DOCTYPE svg PUBLIC "-//W3C//DTD SVG 20010904//EN"
 "http://www.w3.org/TR/2001/REC-SVG-20010904/DTD/svg10.dtd">
<svg version="1.0" xmlns="http://www.w3.org/2000/svg"
 width="260.000000pt" height="260.000000pt" viewBox="0 0 260.000000 260.000000"
 preserveAspectRatio="xMidYMid meet">
<metadata>
Created by potrace 1.14, written by Peter Selinger 2001-2017
</metadata>
<g transform="translate(0.000000,260.000000) scale(0.100000,-0.100000)"
fill="#000000" stroke="none">
<path d="M985 2212 c-1 -2 -74 -5 -161 -7 -149 -4 -330 -13 -399 -21 -16 -2
-54 -6 -83 -8 -147 -14 -222 -67 -237 -168 -2 -18 -7 -44 -10 -58 -15 -73 -27
-152 -32 -205 -5 -67 -6 -76 -17 -125 -4 -19 -9 -201 -11 -405 -2 -203 -7
-417 -10 -475 -4 -58 -7 -131 -8 -163 -2 -61 -4 -58 58 -105 6 -4 24 -19 42
-33 18 -15 51 -29 77 -33 25 -4 60 -14 78 -23 26 -14 76 -18 255 -21 l222 -5
25 28 c19 21 31 26 53 21 156 -31 875 -40 1030 -12 10 2 40 7 66 10 27 4 58 9
69 11 11 3 44 7 72 9 28 3 87 12 131 21 44 8 108 18 143 21 55 4 71 11 125 51
34 25 62 48 63 52 0 3 4 13 7 21 7 17 13 191 19 525 2 121 7 231 11 245 26 93
38 336 21 425 -7 33 -14 84 -17 114 -7 67 -51 161 -76 161 -10 0 -45 13 -77
29 -66 32 -253 94 -299 98 -16 1 -59 8 -95 14 -57 9 -1026 20 -1035 11z"/>
</g>
</svg>
